<svg xmlns="http://www.w3.org/2000/svg" viewBox="0 0 146.37 157.35"><defs><style>.cls-1{fill:#fff;}.cls-2,.cls-5{fill:none;stroke:#002f45;}.cls-2,.cls-4,.cls-5{stroke-miterlimit:10;}.cls-2{stroke-width:30px;}.cls-3{fill:#002f45;}.cls-4{fill:#f1b719;stroke:#f1b719;stroke-width:1.5px;}.cls-5{stroke-width:8px;}</style></defs><g id="레이어_2" data-name="레이어 2"><g id="레이어_1-2" data-name="레이어 1"><circle class="cls-1" cx="74.24" cy="78.15" r="52.56"/><path class="cls-2" d="M133.48,111.11a63.68,63.68,0,1,1-10.69-78.35"/><circle class="cls-3" cx="121.9" cy="31.99" r="14.93"/><path class="cls-4" d="M24.61,92.61a1.75,1.75,0,0,1-.23,1.33,1.87,1.87,0,0,1-.47.54,1.69,1.69,0,0,1-.66.32,1.24,1.24,0,0,1-.94-.07,1.13,1.13,0,0,1-.53-.76.93.93,0,0,1,0-.44,2.37,2.37,0,0,1,.15-.4c.06-.12.11-.24.16-.35a.49.49,0,0,0,0-.31,5.42,5.42,0,0,0-.43-1.07,8.57,8.57,0,0,0-.9-1.3,10.46,10.46,0,0,0-1.25-1.24,15.38,15.38,0,0,0-1.49-1.08,13.44,13.44,0,0,0-1.69-.91,15.9,15.9,0,0,0-1.8-.67,5,5,0,0,0-.77-.15,6.37,6.37,0,0,0-.9-.06c-.31,0-.63,0-1,.05a7.55,7.55,0,0,0-.95.17,1.22,1.22,0,0,0-.7.43,1.85,1.85,0,0,0-.32.68,2.76,2.76,0,0,0-.05.76,4.8,4.8,0,0,0,.09.66,4.72,4.72,0,0,0,.42,1,7.42,7.42,0,0,0,.67,1,8.74,8.74,0,0,0,.86,1,8.62,8.62,0,0,0,.94.81l.41.25a6.49,6.49,0,0,0,.59.28,4.18,4.18,0,0,0,.61.23.84.84,0,0,0,.45.05,1,1,0,0,0,.2-.08l.23-.1.22-.1.18-.07q.64-.17.93.93a1.31,1.31,0,0,1,0,.59,2.87,2.87,0,0,1-.24.57,2.34,2.34,0,0,1-.35.45.87.87,0,0,1-.33.24,1.2,1.2,0,0,1-.25,0L15,95.77l-.67-.1-.66-.12-.54-.09-.28,0c-.26,0-.58,0-.94-.07l-1.09,0-1,0a5.43,5.43,0,0,0-.71.1.28.28,0,0,0-.15.08l-.12.12-.1.11a.23.23,0,0,1-.11.07,1.59,1.59,0,0,1-.57,0,1.23,1.23,0,0,1-.5-.16,1.16,1.16,0,0,1-.4-.33,1.22,1.22,0,0,1-.23-.47,1.16,1.16,0,0,1,0-.55A1,1,0,0,1,7.14,94a1.46,1.46,0,0,1,.44-.29,4.08,4.08,0,0,1,.62-.21,2.75,2.75,0,0,1,.58,0l.82,0,.87.07.71.06c-.4-.31-.78-.62-1.13-.92a7.91,7.91,0,0,1-1-1,7,7,0,0,1-.78-1.17A7.33,7.33,0,0,1,7.75,89a5.07,5.07,0,0,1-.15-1.72A4.48,4.48,0,0,1,8,85.74a3.66,3.66,0,0,1,.88-1.2,2.94,2.94,0,0,1,1.28-.68,8.38,8.38,0,0,1,3.11-.17,12.66,12.66,0,0,1,3.53,1c.51.22,1,.45,1.48.7s.91.49,1.29.73a9.69,9.69,0,0,1,.83.58c.29.23.57.46.84.72s.54.52.8.8.49.56.71.84.45.61.64.89a8.31,8.31,0,0,1,.51.85,8.59,8.59,0,0,1,.4.87A7.89,7.89,0,0,1,24.61,92.61Z"/><path class="cls-4" d="M24.12,108.47a1.14,1.14,0,0,1-.61.09,2.25,2.25,0,0,1-.67-.21,3.19,3.19,0,0,1-.69-.42,5.26,5.26,0,0,1-.67-.58,6.07,6.07,0,0,1-.59-.65,5.41,5.41,0,0,1-.48-.69l-.09-.17-.17-.33c-.07-.13-.14-.26-.21-.41s-.14-.28-.2-.42a2.44,2.44,0,0,1-.1-.24.49.49,0,0,1-.06-.2l-.23.13-.17.09-.16.08-.19.08-1,.43a4,4,0,0,1-.52.17,5.6,5.6,0,0,1-.59.12,4.3,4.3,0,0,1-.61,0,2.37,2.37,0,0,1-.54,0,4.6,4.6,0,0,1-.8-.22,6.42,6.42,0,0,1-.85-.39,7.23,7.23,0,0,1-.84-.51c-.28-.2-.53-.4-.77-.61a4.68,4.68,0,0,1-.62-.65,3.34,3.34,0,0,1-.42-.67,2.26,2.26,0,0,1-.22-1.14,1.93,1.93,0,0,1,.33-.93,2.87,2.87,0,0,1,.77-.74,7.07,7.07,0,0,1,1.06-.57,5.49,5.49,0,0,1,.94-.32c.32-.07.64-.13,1-.17s.65-.06,1-.06h1l.86,0q.43,0,.84,0c.38,0,.73,0,1.06.08a2.79,2.79,0,0,1,.92.26,2.52,2.52,0,0,1,.78.59,3.63,3.63,0,0,1,.65,1.08,1.61,1.61,0,0,1,.15.51,1.41,1.41,0,0,1,0,.46,2,2,0,0,1-.18.44c-.08.14-.18.29-.3.46l-.23.35a1.58,1.58,0,0,0-.16.35.94.94,0,0,0,0,.41,1.94,1.94,0,0,0,.16.53c.11.26.21.48.28.66l.19.42c.06.11.1.2.14.26a.77.77,0,0,0,.1.18c.12.21.24.39.35.56l.36.49.39.47.46.51.18.18a.68.68,0,0,1,.14.23.78.78,0,0,1,.09.37C24.31,108.35,24.25,108.42,24.12,108.47ZM19,102.59l.34-.16.2-.13a.58.58,0,0,0,.11-.13.75.75,0,0,0,.07-.12c0-.08.1-.18.17-.29l.2-.31.17-.26c0-.08.06-.12.05-.15a.89.89,0,0,0-.37-.38,2.93,2.93,0,0,0-.66-.26,5.26,5.26,0,0,0-.89-.16c-.32,0-.67,0-1,0l-1,.06-1,.12a10,10,0,0,0-1,.21,6.2,6.2,0,0,0-.89.29.64.64,0,0,0-.35.37.76.76,0,0,0,0,.6,1.07,1.07,0,0,0,.28.34,5.21,5.21,0,0,0,.49.37,5.7,5.7,0,0,0,.57.34,2.82,2.82,0,0,0,.52.21,5.68,5.68,0,0,0,1.06.23,3.37,3.37,0,0,0,.9,0,4.87,4.87,0,0,0,.92-.25Z"/><path class="cls-4" d="M25.87,115.77a2.2,2.2,0,0,1-.56.21,4.92,4.92,0,0,1-.89.12,9,9,0,0,1-1.24,0,12.62,12.62,0,0,1-1.62-.22,9.14,9.14,0,0,1-1-.26,6,6,0,0,1-1-.42,4.7,4.7,0,0,1-.9-.6,2.82,2.82,0,0,1-.67-.76,2.9,2.9,0,0,1-.41-1.22,2.64,2.64,0,0,1,.18-1.29,4.07,4.07,0,0,1,.84-1.29,6.68,6.68,0,0,1,1.55-1.21c.42-.25.86-.49,1.34-.72s.95-.45,1.44-.67,1-.43,1.48-.62l1.41-.56.82-.33.71-.3.76-.32,1-.39a2.73,2.73,0,0,1,.56-.15,1.88,1.88,0,0,1,.53,0,1.15,1.15,0,0,1,.48.17,1.13,1.13,0,0,1,.35.37,1,1,0,0,1-.11,1.2l-.55.22-1.1.4-1.39.49-1.56.58c-.54.21-1.09.42-1.63.65s-1.09.48-1.62.73-1,.51-1.48.79a7.17,7.17,0,0,0-.93.64,3,3,0,0,0-.61.65,1.44,1.44,0,0,0-.24.66,1.08,1.08,0,0,0,.16.66,2.07,2.07,0,0,0,.56.59,4.88,4.88,0,0,0,.82.46,7,7,0,0,0,1,.36c.35.1.69.19,1,.26s.64.12.94.16l.75.07h.32a1.91,1.91,0,0,1,.33.06,1.43,1.43,0,0,1,.31.12.61.61,0,0,1,.23.22.3.3,0,0,1,0,.25A.59.59,0,0,1,25.87,115.77Z"/><path class="cls-4" d="M32.7,127.62c-.4,0-.83-.08-1.3-.16a9.64,9.64,0,0,1-1.39-.32,6.9,6.9,0,0,1-1.33-.59,4.05,4.05,0,0,1-1.09-.93,2.2,2.2,0,0,1-.5-1.07,2.49,2.49,0,0,1,.14-1.19,4.57,4.57,0,0,1,.73-1.28,9.66,9.66,0,0,1,1.32-1.32,5.4,5.4,0,0,1-.65.12l-.69.08-.64,0h-.47a13.65,13.65,0,0,1-3.19-.45,3.8,3.8,0,0,1-1.95-1.17,1.56,1.56,0,0,1-.33-.62,1.63,1.63,0,0,1,0-.62,1.67,1.67,0,0,1,.19-.57,1.73,1.73,0,0,1,.36-.44,6.94,6.94,0,0,1,1.42-.88,14.24,14.24,0,0,1,1.66-.63,15.09,15.09,0,0,1,1.71-.4c.57-.1,1.1-.17,1.6-.21a11.07,11.07,0,0,1,1.4,0,9.07,9.07,0,0,1,1.24.11,4.19,4.19,0,0,1,1,.26,1.65,1.65,0,0,1,.62.42,1.15,1.15,0,0,1,.2.4,2.78,2.78,0,0,1,.11.5,4.35,4.35,0,0,1,.05.48,1.43,1.43,0,0,1,0,.33c0,.08,0,.18-.07.29a.75.75,0,0,1-.14.3l1.14-.71c.4-.25.81-.5,1.2-.76l1.15-.74c.37-.25.69-.47,1-.67a2.08,2.08,0,0,1,1.1-.47,1.18,1.18,0,0,1,.9.49.68.68,0,0,1,.1.69,2.09,2.09,0,0,1-.67.83,3.1,3.1,0,0,1-.4.27l-.8.51-1.08.66-1.22.76-1.23.77-1.13.71-.89.58c-.25.17-.43.29-.53.37l-.47.41c-.18.16-.37.33-.55.52a7.57,7.57,0,0,0-.53.6,3.53,3.53,0,0,0-.39.62,1.49,1.49,0,0,0-.16.6.77.77,0,0,0,.19.53,3.34,3.34,0,0,0,.67.63,5.21,5.21,0,0,0,.87.5,8.25,8.25,0,0,0,1.07.41c.4.12.83.24,1.3.35h.11l.19,0,.2.06a.36.36,0,0,1,.15.1s0,.11,0,.22a.66.66,0,0,1-.25.35,2,2,0,0,1-.39.25A1.05,1.05,0,0,1,32.7,127.62Zm-1.35-8.8.27-.13a1.91,1.91,0,0,0,.32-.17,1.12,1.12,0,0,1-.54-.08,1.17,1.17,0,0,1-.44-.36.9.9,0,0,1-.16-.28.63.63,0,0,1,0-.27,1.57,1.57,0,0,1,.06-.28l.13-.34a1.79,1.79,0,0,0-.95-.26,7.73,7.73,0,0,0-1.4.08A13.57,13.57,0,0,0,27,117c-.54.12-1.05.26-1.51.4s-.87.28-1.2.4a2.68,2.68,0,0,0-.62.3.41.41,0,0,0-.15.21.22.22,0,0,0,0,.21,1.18,1.18,0,0,0,.4.29,2.83,2.83,0,0,0,.6.21c.21.06.43.11.65.15l.56.08c.39,0,.82.08,1.3.1a12,12,0,0,0,1.47,0A10.17,10.17,0,0,0,30,119.2,5.81,5.81,0,0,0,31.35,118.82Z"/><path class="cls-4" d="M44.27,131.79a.69.69,0,0,1-.21.16,2.11,2.11,0,0,1-.4.2c-.45.17-1,.33-1.57.49s-1.21.28-1.86.38-1.3.17-2,.21a13.57,13.57,0,0,1-1.92,0,7.92,7.92,0,0,1-1.69-.31,3.46,3.46,0,0,1-1.28-.67,3.68,3.68,0,0,1-1-1.16,2.85,2.85,0,0,1-.3-1.27,3.43,3.43,0,0,1,.33-1.35,6.16,6.16,0,0,1,.92-1.41,13,13,0,0,1,1-1.08,9.61,9.61,0,0,1,1.31-1,9.38,9.38,0,0,1,1.58-.81,9,9,0,0,1,1.87-.51,3.63,3.63,0,0,1,1.44,0,2.47,2.47,0,0,1,1.07.5.92.92,0,0,1,.16.2,1.59,1.59,0,0,1,.15.29,2,2,0,0,1,.1.35,1,1,0,0,1,0,.34,3.5,3.5,0,0,1-.18.88,2.2,2.2,0,0,1-.44.74,4.66,4.66,0,0,1-1,.91,5.22,5.22,0,0,1-1.09.53,7.9,7.9,0,0,1-1.21.28l-1.35.18a9.93,9.93,0,0,1-1,.05c-.38,0-.8,0-1.25,0a3.23,3.23,0,0,0-.22.54,1.27,1.27,0,0,0,0,.47,1.16,1.16,0,0,0,.15.43,1.74,1.74,0,0,0,.37.41,2.58,2.58,0,0,0,.8.46,6.38,6.38,0,0,0,1,.31,4.6,4.6,0,0,0,1,.11h1.1c.23,0,.54,0,.94-.06l1.21-.13.83-.08.89-.1.71-.1a1.44,1.44,0,0,1,1,.18c.09.08.12.15.1.23A.5.5,0,0,1,44.27,131.79Zm-4.64-5.39a1.32,1.32,0,0,0,.32-.56.35.35,0,0,0-.1-.32.49.49,0,0,0-.36-.07,3.59,3.59,0,0,0-.6.14,6.52,6.52,0,0,0-.77.31c-.28.12-.56.27-.85.43a8.39,8.39,0,0,0-.83.54,7.49,7.49,0,0,0-.72.62l.65,0a5.7,5.7,0,0,0,.58-.06l.67-.13a7.27,7.27,0,0,0,.77-.2,4.69,4.69,0,0,0,.72-.28A1.49,1.49,0,0,0,39.63,126.4Z"/><path class="cls-4" d="M52.27,140.46a.14.14,0,0,1,.06.16,1.06,1.06,0,0,1-.13.34,1.93,1.93,0,0,1-.63.65,3.14,3.14,0,0,1-1,.43,4,4,0,0,1-1.3.06,4,4,0,0,1-1.46-.51,3.32,3.32,0,0,1-1.12-1,2.84,2.84,0,0,1-.52-1.33,4.61,4.61,0,0,1,.16-1.72,9.79,9.79,0,0,1,.89-2.14,10,10,0,0,0-1.19.41c-.42.18-.84.38-1.24.58s-.78.4-1.12.59l-.77.44-.67.39a2,2,0,0,1-.47.25.89.89,0,0,1-.39.06,1.08,1.08,0,0,1-.44-.16,1.13,1.13,0,0,1-.37-.31,1.54,1.54,0,0,1-.22-.39,1.13,1.13,0,0,1,0-.4.88.88,0,0,1,.1-.36c.06-.1.13-.22.22-.35a4.85,4.85,0,0,1,.28-.4l.29-.39.26-.36.34-.43q.16-.24.39-.51l.46-.63c.17-.23.35-.49.55-.78l.67-1c.22-.32.45-.65.69-1s.29-.37.43-.52a1.7,1.7,0,0,1,.43-.35,1,1,0,0,1,.48-.12,1.06,1.06,0,0,1,.55.16,1.15,1.15,0,0,1,.38.31.58.58,0,0,1,.13.33.76.76,0,0,1-.05.33c0,.11-.1.22-.16.33s-.07.11-.1.16a.57.57,0,0,1-.08.13,3.78,3.78,0,0,1-.24.32l-.42.53-.74.88-.56.65-.55.64c-.17.2-.32.38-.45.55a4.65,4.65,0,0,0-.31.39c.22-.1.49-.22.8-.38l.92-.47.91-.46c.28-.15.52-.26.71-.34s.61-.25.89-.35a4.54,4.54,0,0,1,.83-.24,2.63,2.63,0,0,1,.79,0,2,2,0,0,1,.75.25.91.91,0,0,1,.31.25.51.51,0,0,1,.11.25.63.63,0,0,1,0,.27,1.26,1.26,0,0,1-.13.26l-.08.15-.16.24-.29.41-.29.41-.17.26a9.4,9.4,0,0,0-.63,1.34,4.64,4.64,0,0,0-.28,1.21,2.12,2.12,0,0,0,.12,1,1.36,1.36,0,0,0,.62.68,3.88,3.88,0,0,0,.56.26,1.86,1.86,0,0,0,.52.11,2.9,2.9,0,0,0,.59,0l.74-.08a1.88,1.88,0,0,1,.33,0H52A1.31,1.31,0,0,1,52.27,140.46Z"/><path class="cls-4" d="M76.72,135.64a1.35,1.35,0,0,1-.15.49.75.75,0,0,1-.26.27.71.71,0,0,1-.31.1h-.31l-.57-.09-.5-.08-.51-.08-.61-.09c-.15,0-.32,0-.52,0h-.62c-.21,0-.43,0-.64,0l-.6.06a4.37,4.37,0,0,0-.49.09,1.1,1.1,0,0,0-.32.1.43.43,0,0,0-.14.21,1.17,1.17,0,0,0-.09.33l-.56,2.41c-.21.93-.42,1.86-.62,2.77s-.36,1.81-.48,2.7c0,.12,0,.3,0,.53s0,.46,0,.68,0,.43,0,.6a1.37,1.37,0,0,1,0,.28,1.88,1.88,0,0,1-.38.92,1,1,0,0,1-.36.29.7.7,0,0,1-.43.08.82.82,0,0,1-.31-.13,1.58,1.58,0,0,1-.3-.28,1.53,1.53,0,0,1-.25-.39,2.25,2.25,0,0,1-.14-.44,3.67,3.67,0,0,1-.05-.61c0-.23,0-.46,0-.7s0-.47.06-.69,0-.44.07-.62.11-.69.2-1.15.19-1,.31-1.48.23-1.06.36-1.61l.36-1.54c.12-.47.22-.89.31-1.24s.14-.61.17-.76a6.78,6.78,0,0,0-.73,0h-1q-.66,0-1.35,0a9.09,9.09,0,0,1-1.31-.09l-.34-.07a2.23,2.23,0,0,1-.43-.16,1.33,1.33,0,0,1-.35-.26.49.49,0,0,1-.11-.39.54.54,0,0,1,0-.11.75.75,0,0,1,0-.12,3.4,3.4,0,0,1,.07-.34,1.22,1.22,0,0,1,.14-.28.61.61,0,0,1,.24-.21,1.06,1.06,0,0,1,.38-.12,8.16,8.16,0,0,1,1.15-.07,8.66,8.66,0,0,1,1.25.09H66c.22,0,.47,0,.76,0l.93,0,1,0,.81,0,.52,0,1.21-.11q.6-.08,1.2-.12c.4,0,.8-.06,1.19-.07a8.82,8.82,0,0,1,1.16.07l.23,0,.37.08.42.12a2.61,2.61,0,0,1,.42.16.71.71,0,0,1,.24.22,1.37,1.37,0,0,1,.16.32,1.56,1.56,0,0,1,.09.34A.85.85,0,0,1,76.72,135.64Z"/><path class="cls-4" d="M84.55,144.78l-.52.67a7.75,7.75,0,0,1-.5.61c-.16.19-.33.37-.51.56s-.35.37-.54.55a5.6,5.6,0,0,1-1.17.88,2.78,2.78,0,0,1-1.13.37,2.39,2.39,0,0,1-1.12-.17,2.33,2.33,0,0,1-.84-.59,3.48,3.48,0,0,1-.6-.92,6.67,6.67,0,0,1-.41-1.11,9.47,9.47,0,0,1-.26-1.2c-.06-.41-.1-.8-.13-1.17,0-.14,0-.35,0-.62s0-.55,0-.85,0-.59.05-.87,0-.52.07-.69a1.75,1.75,0,0,1,.2-.52,2,2,0,0,1,.36-.48,1.55,1.55,0,0,1,1-.5c.4,0,.61.22.65.76a4.84,4.84,0,0,1,0,.65c0,.26,0,.52,0,.78s0,.59,0,.83,0,.47,0,.66,0,.37,0,.53,0,.31,0,.45.06.55.11.87.13.61.21.89a3.26,3.26,0,0,0,.3.67c.11.19.23.27.35.26a2.66,2.66,0,0,0,.63-.12,2.49,2.49,0,0,0,.73-.39,8,8,0,0,0,.74-.63,8.73,8.73,0,0,0,.79-.81l.75-.86c.24-.29.48-.59.73-.93l.3-.41.25-.35.23-.33.23-.33.08-.12a1.71,1.71,0,0,1,.11-.14l.13-.13a.24.24,0,0,1,.14-.05.39.39,0,0,1,.41.23.72.72,0,0,1,.09.27c0,.09,0,.17,0,.23a1,1,0,0,1-.07.34c-.06.16-.13.35-.23.56s-.2.44-.33.68l-.39.73c-.13.24-.27.47-.41.69S84.67,144.62,84.55,144.78Zm-4.36-11.62a2.25,2.25,0,0,1,0,.64,2.1,2.1,0,0,1-.22.59,1.17,1.17,0,0,1-1,.62,2.93,2.93,0,0,1-.51,0,2.25,2.25,0,0,1-.48-.11,1.21,1.21,0,0,1-.37-.22.49.49,0,0,1-.16-.32,1.9,1.9,0,0,1,.1-.68,3.89,3.89,0,0,1,.33-.68,2.47,2.47,0,0,1,.47-.54.9.9,0,0,1,.51-.23,2.71,2.71,0,0,1,.57,0,1.09,1.09,0,0,1,.42.13.68.68,0,0,1,.28.3A1.35,1.35,0,0,1,80.19,133.16Z"/><path class="cls-4" d="M105.07,137.16a.66.66,0,0,1,0,.35,2.83,2.83,0,0,1-.11.44,4.07,4.07,0,0,1-.18.44,2,2,0,0,1-.2.36,9.92,9.92,0,0,1-1.29,1.46,4.55,4.55,0,0,1-1.53.9,1.86,1.86,0,0,1-1,.07,2.29,2.29,0,0,1-1-.49,5.19,5.19,0,0,1-.92-1,12.78,12.78,0,0,1-.89-1.46c-.08-.16-.16-.32-.24-.46l-.22-.39-.16-.26a.51.51,0,0,0-.07-.1c-.13.05-.25.34-.36.88s-.22,1.28-.34,2.23c-.07.53-.15,1-.22,1.44s-.17.79-.26,1.1a3.44,3.44,0,0,1-.34.74.9.9,0,0,1-.44.37,1.33,1.33,0,0,1-.69.08,1,1,0,0,1-.56-.35,3.41,3.41,0,0,1-.52-.83c-.17-.37-.36-.82-.56-1.37a8.2,8.2,0,0,0-.66-1.47c-.2-.33-.34-.48-.44-.45s-.09.1-.15.26a6.23,6.23,0,0,0-.21.59c-.07.25-.14.52-.22.82l-.21.91c-.07.3-.13.6-.18.89s-.09.53-.12.74,0,.36-.07.58-.07.45-.11.68-.07.45-.11.67-.08.4-.11.56a1.34,1.34,0,0,1-.24.51,1,1,0,0,1-.43.3,1.12,1.12,0,0,1-.72,0,1.48,1.48,0,0,1-.58-.4,2.94,2.94,0,0,1-.45-.69,8,8,0,0,1-.35-.85,7.79,7.79,0,0,1-.24-.81c-.08-.29-.15-.59-.21-.89l-.18-.92c-.06-.31-.11-.61-.16-.91-.1-.54-.19-1-.28-1.48a10.49,10.49,0,0,0-.33-1.26.88.88,0,0,1,0-.64.77.77,0,0,1,.48-.43c.77-.26,1.33.12,1.69,1.16a5.15,5.15,0,0,1,.15.62c0,.25.09.52.13.81s.07.59.1.9.07.62.1.93.07.59.1.87.08.52.12.74a1.08,1.08,0,0,0,0-.22c0-.12,0-.26.06-.43s0-.34.07-.53,0-.37.06-.54,0-.32.06-.44,0-.2,0-.23c.11-.65.23-1.23.35-1.75a11,11,0,0,1,.4-1.38,2.91,2.91,0,0,1,.56-1,1.9,1.9,0,0,1,.83-.55.92.92,0,0,1,.78.05,2.54,2.54,0,0,1,.65.59,6.62,6.62,0,0,1,.54.88L94,139c.08.17.16.34.24.53s.17.38.24.56.15.33.21.48.1.26.13.33a.08.08,0,0,0,0,.06h.06s.06-.07.08-.19,0-.27.06-.46,0-.38.06-.6,0-.44,0-.65,0-.41,0-.59,0-.31,0-.4c.05-.3.11-.64.16-1a9.24,9.24,0,0,1,.24-1.07,3.69,3.69,0,0,1,.42-.92,1.3,1.3,0,0,1,.68-.55,1.36,1.36,0,0,1,.83-.06,1.49,1.49,0,0,1,.63.47,5.4,5.4,0,0,1,.62.92c.22.38.47.82.77,1.31a9.4,9.4,0,0,0,1.12,1.57c.33.35.6.49.82.41a4.84,4.84,0,0,0,1.15-.59,5.87,5.87,0,0,0,1.24-1.22l.1-.11.16-.16.17-.15.13-.08a.42.42,0,0,1,.16,0,.64.64,0,0,1,.18.06.62.62,0,0,1,.17.11A.42.42,0,0,1,105.07,137.16Z"/><path class="cls-4" d="M112.36,130.29a1.82,1.82,0,0,1,.26.86,6.47,6.47,0,0,1,0,1.23,10.37,10.37,0,0,1-.31,1.47,8.45,8.45,0,0,1-.55,1.38,6.32,6.32,0,0,1-.75,1.17,4.54,4.54,0,0,1-1,.87,3.1,3.1,0,0,1-1.28.52,2.66,2.66,0,0,1-1.28-.1,3.85,3.85,0,0,1-1.25-.75,7,7,0,0,1-1.19-1.39,8.37,8.37,0,0,1-.61-1.1,9.43,9.43,0,0,1-.45-1.23,8,8,0,0,1-.26-1.29,8.12,8.12,0,0,1,0-1.3,6.61,6.61,0,0,1,.09-.86,4.08,4.08,0,0,1,.25-.89,3.67,3.67,0,0,1,.45-.82,2.87,2.87,0,0,1,.73-.7,1.55,1.55,0,0,1,.75-.27,1.78,1.78,0,0,1,.73.06,1.88,1.88,0,0,1,.65.32,1.75,1.75,0,0,1,.48.5,3.61,3.61,0,0,1,.58,1.41,5.14,5.14,0,0,1,0,1.57,9.77,9.77,0,0,1-.4,1.76c-.2.61-.44,1.27-.72,2a.72.72,0,0,0-.07.15c0,.08,0,.12,0,.13a1.38,1.38,0,0,0,.32.32,1.35,1.35,0,0,0,.45.22,1.47,1.47,0,0,0,.56.05,1.61,1.61,0,0,0,.61-.24,4,4,0,0,0,.85-.79,5.16,5.16,0,0,0,.67-1.06,7.94,7.94,0,0,0,.45-1.3,8.4,8.4,0,0,0,.24-1.46,1.42,1.42,0,0,1,.11-.48.62.62,0,0,1,.22-.27.32.32,0,0,1,.3,0A.87.87,0,0,1,112.36,130.29Zm-5.84-.83a.61.61,0,0,0-.19-.2.6.6,0,0,0-.2-.07H106l-.09,0a1,1,0,0,0-.43.71,3.35,3.35,0,0,0,0,1.1,8,8,0,0,0,.28,1.28c.13.45.28.87.43,1.27.13-.47.25-.9.37-1.29a9.34,9.34,0,0,0,.24-1.11,3.37,3.37,0,0,0,0-.94A1.6,1.6,0,0,0,106.52,129.46Z"/><circle class="cls-3" cx="74.8" cy="78.15" r="3.7"/><line class="cls-5" x1="74.34" y1="80.01" x2="54.11" y2="98.37"/><line class="cls-5" x1="74.34" y1="80.01" x2="106.68" y2="109.9"/><circle class="cls-3" cx="54.23" cy="98.26" r="4.1"/><circle class="cls-3" cx="106.15" cy="109.51" r="4.1"/></g></g></svg>