<svg xmlns="http://www.w3.org/2000/svg" viewBox="0 0 151.01 169.31"><defs><style>.cls-1,.cls-3{fill:none;}.cls-1,.cls-2,.cls-3{stroke:#231815;}.cls-1,.cls-2,.cls-3,.cls-4{stroke-miterlimit:10;}.cls-1{stroke-width:30px;}.cls-2{fill:#231815;}.cls-3{stroke-width:7px;}.cls-4{font-size:21.02px;fill:#f1b719;stroke:#f1b719;stroke-width:1.5px;font-family:SegoeScript-Bold, Segoe Script;font-weight:700;}</style></defs><g id="레이어_2" data-name="레이어 2"><g id="레이어_1-2" data-name="레이어 1"><path class="cls-1" d="M138.13,120.81a63.68,63.68,0,1,1-10.69-78.34"/><circle class="cls-2" cx="126.55" cy="41.7" r="14.93"/><line class="cls-3" x1="78.89" y1="88.38" x2="56.46" y2="104.01"/><line class="cls-3" x1="78.89" y1="88.38" x2="107.12" y2="122.17"/><circle class="cls-2" cx="78.89" cy="87.35" r="2.49"/><circle class="cls-2" cx="56.08" cy="104.27" r="2.97"/><circle class="cls-2" cx="107.12" cy="122.17" r="2.97"/><text class="cls-4" transform="translate(10.86 93.64) rotate(75.81) scale(0.88 1)">G</text><text class="cls-4" transform="matrix(0.35, 0.81, -0.92, 0.4, 15.19, 109.45)">o</text><text class="cls-4" transform="translate(19.68 119.48) rotate(59.36) scale(0.88 1)">l</text><text class="cls-4" transform="translate(24.54 127.87) rotate(50.45) scale(0.88 1)">d</text><text class="cls-4" transform="matrix(0.67, 0.57, -0.65, 0.76, 34.33, 139.25)">e</text><text class="cls-4" transform="translate(43.06 146.69) rotate(29.22) scale(0.88 1)">n</text><text class="cls-4" transform="translate(56.6 153.76) rotate(18.44) scale(0.88 1)"> </text><text class="cls-4" transform="translate(65.31 156.77) rotate(7.52) scale(0.88 1)">T</text><text class="cls-4" transform="translate(80.13 158.31) rotate(-4.1) scale(0.88 1)">i</text><text class="cls-4" transform="translate(91.31 157.85) rotate(-19.07) scale(0.88 1)">m</text><text class="cls-4" transform="translate(111.13 150.02) rotate(-33.69) scale(0.88 1)">e</text></g></g></svg>