<svg width="22" height="21" viewBox="0 0 22 21" fill="none" xmlns="http://www.w3.org/2000/svg">
<path d="M1 10.2844L9.955 1.32942C10.0594 1.22499 10.1833 1.14214 10.3197 1.08562C10.4561 1.02909 10.6023 1 10.75 1C10.8977 1 11.0439 1.02909 11.1803 1.08562C11.3167 1.14214 11.4406 1.22499 11.545 1.32942L20.5 10.2844M3.25 8.03442V18.1594C3.25 18.7804 3.754 19.2844 4.375 19.2844H8.5V14.4094C8.5 13.7884 9.004 13.2844 9.625 13.2844H11.875C12.496 13.2844 13 13.7884 13 14.4094V19.2844H17.125C17.746 19.2844 18.25 18.7804 18.25 18.1594V8.03442M7 19.2844H15.25" stroke="#D9D9D9" stroke-width="2" stroke-linecap="round" stroke-linejoin="round"/>
</svg>
