<svg width="16" height="20" viewBox="0 0 16 20" fill="none" xmlns="http://www.w3.org/2000/svg">
<path d="M13 5.89H12V4C12 2.93913 11.5786 1.92172 10.8284 1.17157C10.0783 0.421427 9.06087 0 8 0C6.93913 0 5.92172 0.421427 5.17157 1.17157C4.42143 1.92172 4 2.93913 4 4V5.89H3C2.20435 5.89 1.44129 6.20607 0.87868 6.76868C0.316071 7.33129 0 8.09435 0 8.89V16.89C0 17.6856 0.316071 18.4487 0.87868 19.0113C1.44129 19.5739 2.20435 19.89 3 19.89H13C13.7956 19.89 14.5587 19.5739 15.1213 19.0113C15.6839 18.4487 16 17.6856 16 16.89V8.89C16 8.09435 15.6839 7.33129 15.1213 6.76868C14.5587 6.20607 13.7956 5.89 13 5.89ZM6 4C5.98655 3.4553 6.18945 2.92745 6.56428 2.532C6.93912 2.13655 7.45536 1.9057 8 1.89C8.54464 1.9057 9.06088 2.13655 9.43572 2.532C9.81055 2.92745 10.0135 3.4553 10 4V5.89H6V4ZM14 16.89C14 17.1552 13.8946 17.4096 13.7071 17.5971C13.5196 17.7846 13.2652 17.89 13 17.89H3C2.73478 17.89 2.48043 17.7846 2.29289 17.5971C2.10536 17.4096 2 17.1552 2 16.89V8.89C2 8.62478 2.10536 8.37043 2.29289 8.18289C2.48043 7.99536 2.73478 7.89 3 7.89H13C13.2652 7.89 13.5196 7.99536 13.7071 8.18289C13.8946 8.37043 14 8.62478 14 8.89V16.89Z" fill="#D9D9D9"/>
<path d="M8 9.89014C7.40666 9.89014 6.82664 10.0661 6.33329 10.3957C5.83994 10.7254 5.45543 11.1939 5.22836 11.7421C5.0013 12.2903 4.94189 12.8935 5.05765 13.4754C5.1734 14.0574 5.45912 14.5919 5.87868 15.0115C6.29824 15.431 6.83279 15.7167 7.41473 15.8325C7.99667 15.9482 8.59987 15.8888 9.14805 15.6618C9.69623 15.4347 10.1648 15.0502 10.4944 14.5568C10.8241 14.0635 11 13.4835 11 12.8901C11 12.0945 10.6839 11.3314 10.1213 10.7688C9.55871 10.2062 8.79565 9.89014 8 9.89014ZM8 13.8901C7.80222 13.8901 7.60888 13.8315 7.44443 13.7216C7.27998 13.6117 7.15181 13.4555 7.07612 13.2728C7.00043 13.0901 6.98063 12.889 7.01922 12.695C7.0578 12.5011 7.15304 12.3229 7.2929 12.183C7.43275 12.0432 7.61093 11.9479 7.80491 11.9094C7.99889 11.8708 8.19996 11.8906 8.38269 11.9663C8.56541 12.0419 8.72159 12.1701 8.83147 12.3346C8.94135 12.499 9 12.6924 9 12.8901C9 13.1554 8.89464 13.4097 8.70711 13.5972C8.51957 13.7848 8.26522 13.8901 8 13.8901Z" fill="#D9D9D9"/>
</svg>
