<svg width="22" height="12" viewBox="0 0 22 12" fill="none" xmlns="http://www.w3.org/2000/svg">
<path d="M6 9C5.16667 9 4.45833 8.70833 3.875 8.125C3.29167 7.54167 3 6.83333 3 6C3 5.16667 3.29167 4.45833 3.875 3.875C4.45833 3.29167 5.16667 3 6 3C6.83333 3 7.54167 3.29167 8.125 3.875C8.70833 4.45833 9 5.16667 9 6C9 6.83333 8.70833 7.54167 8.125 8.125C7.54167 8.70833 6.83333 9 6 9ZM6 12C7.28333 12 8.44167 11.6333 9.475 10.9C10.5083 10.1667 11.2333 9.2 11.65 8H12L13.3 9.3C13.4 9.4 13.5083 9.47067 13.625 9.512C13.7417 9.55333 13.8667 9.57433 14 9.575C14.1333 9.57567 14.2583 9.555 14.375 9.513C14.4917 9.471 14.6 9.4 14.7 9.3L16 8L17.75 9.375C17.85 9.45833 17.9627 9.52067 18.088 9.562C18.2133 9.60333 18.3423 9.616 18.475 9.6C18.6077 9.584 18.7287 9.54667 18.838 9.488C18.9473 9.42933 19.043 9.35 19.125 9.25L21.375 6.675C21.4583 6.575 21.521 6.46667 21.563 6.35C21.605 6.23333 21.6257 6.10833 21.625 5.975C21.6243 5.84167 21.5993 5.721 21.55 5.613C21.5007 5.505 21.434 5.409 21.35 5.325L20.325 4.3C20.225 4.2 20.1127 4.125 19.988 4.075C19.8633 4.025 19.734 4 19.6 4H11.65C11.25 2.86667 10.5457 1.91667 9.537 1.15C8.52833 0.383333 7.34933 0 6 0C4.33333 0 2.91667 0.583333 1.75 1.75C0.583333 2.91667 0 4.33333 0 6C0 7.66667 0.583333 9.08333 1.75 10.25C2.91667 11.4167 4.33333 12 6 12Z" fill="#D9D9D9"/>
</svg>
